<mxfile host="app.diagrams.net" agent="Mozilla/5.0 (Windows NT 10.0; Win64; x64) AppleWebKit/537.36 (KHTML, like Gecko) Chrome/126.0.0.0 YaBrowser/24.7.0.0 Safari/537.36" version="24.7.16">
  <diagram id="C5RBs43oDa-KdzZeNtuy" name="Page-1">
    <mxGraphModel dx="1434" dy="791" grid="1" gridSize="10" guides="1" tooltips="1" connect="1" arrows="1" fold="1" page="1" pageScale="1" pageWidth="827" pageHeight="1169" math="0" shadow="0">
      <root>
        <mxCell id="WIyWlLk6GJQsqaUBKTNV-0" />
        <mxCell id="WIyWlLk6GJQsqaUBKTNV-1" parent="WIyWlLk6GJQsqaUBKTNV-0" />
        <mxCell id="WIyWlLk6GJQsqaUBKTNV-2" value="" style="rounded=0;html=1;jettySize=auto;orthogonalLoop=1;fontSize=11;endArrow=block;endFill=0;endSize=8;strokeWidth=1;shadow=0;labelBackgroundColor=none;edgeStyle=orthogonalEdgeStyle;" parent="WIyWlLk6GJQsqaUBKTNV-1" source="WIyWlLk6GJQsqaUBKTNV-3" target="WIyWlLk6GJQsqaUBKTNV-6" edge="1">
          <mxGeometry relative="1" as="geometry" />
        </mxCell>
        <mxCell id="WIyWlLk6GJQsqaUBKTNV-3" value="Начало" style="rounded=1;whiteSpace=wrap;html=1;fontSize=12;glass=0;strokeWidth=1;shadow=0;arcSize=50;" parent="WIyWlLk6GJQsqaUBKTNV-1" vertex="1">
          <mxGeometry x="160" y="80" width="120" height="40" as="geometry" />
        </mxCell>
        <mxCell id="qdcOP-TsMKveUZfFOnVb-1" value="" style="edgeStyle=orthogonalEdgeStyle;rounded=0;orthogonalLoop=1;jettySize=auto;html=1;" parent="WIyWlLk6GJQsqaUBKTNV-1" source="WIyWlLk6GJQsqaUBKTNV-6" target="qdcOP-TsMKveUZfFOnVb-0" edge="1">
          <mxGeometry relative="1" as="geometry" />
        </mxCell>
        <mxCell id="qdcOP-TsMKveUZfFOnVb-2" value="Да" style="edgeLabel;html=1;align=center;verticalAlign=middle;resizable=0;points=[];" parent="qdcOP-TsMKveUZfFOnVb-1" vertex="1" connectable="0">
          <mxGeometry x="-0.0397" y="2" relative="1" as="geometry">
            <mxPoint x="8" as="offset" />
          </mxGeometry>
        </mxCell>
        <mxCell id="WIyWlLk6GJQsqaUBKTNV-6" value="Есть питание?" style="rhombus;whiteSpace=wrap;html=1;shadow=0;fontFamily=Helvetica;fontSize=12;align=center;strokeWidth=1;spacing=6;spacingTop=-4;" parent="WIyWlLk6GJQsqaUBKTNV-1" vertex="1">
          <mxGeometry x="146.5" y="170" width="147" height="80" as="geometry" />
        </mxCell>
        <mxCell id="qdcOP-TsMKveUZfFOnVb-4" value="" style="edgeStyle=orthogonalEdgeStyle;rounded=0;orthogonalLoop=1;jettySize=auto;html=1;" parent="WIyWlLk6GJQsqaUBKTNV-1" source="qdcOP-TsMKveUZfFOnVb-0" target="qdcOP-TsMKveUZfFOnVb-3" edge="1">
          <mxGeometry relative="1" as="geometry" />
        </mxCell>
        <mxCell id="qdcOP-TsMKveUZfFOnVb-0" value="Инициализация GPIO, WIFI, SPI1, SPI2" style="rounded=0;whiteSpace=wrap;html=1;" parent="WIyWlLk6GJQsqaUBKTNV-1" vertex="1">
          <mxGeometry x="160" y="290" width="120" height="50" as="geometry" />
        </mxCell>
        <mxCell id="qdcOP-TsMKveUZfFOnVb-6" value="" style="edgeStyle=orthogonalEdgeStyle;rounded=0;orthogonalLoop=1;jettySize=auto;html=1;" parent="WIyWlLk6GJQsqaUBKTNV-1" source="qdcOP-TsMKveUZfFOnVb-3" target="qdcOP-TsMKveUZfFOnVb-5" edge="1">
          <mxGeometry relative="1" as="geometry" />
        </mxCell>
        <mxCell id="qdcOP-TsMKveUZfFOnVb-7" value="Да" style="edgeLabel;html=1;align=center;verticalAlign=middle;resizable=0;points=[];" parent="qdcOP-TsMKveUZfFOnVb-6" vertex="1" connectable="0">
          <mxGeometry x="-0.0055" y="-2" relative="1" as="geometry">
            <mxPoint x="18" as="offset" />
          </mxGeometry>
        </mxCell>
        <mxCell id="qdcOP-TsMKveUZfFOnVb-9" style="edgeStyle=orthogonalEdgeStyle;rounded=0;orthogonalLoop=1;jettySize=auto;html=1;entryX=0.5;entryY=0;entryDx=0;entryDy=0;" parent="WIyWlLk6GJQsqaUBKTNV-1" source="qdcOP-TsMKveUZfFOnVb-3" target="qdcOP-TsMKveUZfFOnVb-8" edge="1">
          <mxGeometry relative="1" as="geometry" />
        </mxCell>
        <mxCell id="qdcOP-TsMKveUZfFOnVb-19" value="Нет" style="edgeLabel;html=1;align=center;verticalAlign=middle;resizable=0;points=[];" parent="qdcOP-TsMKveUZfFOnVb-9" vertex="1" connectable="0">
          <mxGeometry x="-0.2104" y="1" relative="1" as="geometry">
            <mxPoint x="-1" y="-19" as="offset" />
          </mxGeometry>
        </mxCell>
        <mxCell id="qdcOP-TsMKveUZfFOnVb-3" value="Точка доступа&amp;nbsp;&lt;div&gt;задана?&lt;/div&gt;" style="rhombus;whiteSpace=wrap;html=1;shadow=0;fontFamily=Helvetica;fontSize=12;align=center;strokeWidth=1;spacing=6;spacingTop=-4;" parent="WIyWlLk6GJQsqaUBKTNV-1" vertex="1">
          <mxGeometry x="146.5" y="370" width="147" height="80" as="geometry" />
        </mxCell>
        <mxCell id="qdcOP-TsMKveUZfFOnVb-18" value="" style="edgeStyle=orthogonalEdgeStyle;rounded=0;orthogonalLoop=1;jettySize=auto;html=1;" parent="WIyWlLk6GJQsqaUBKTNV-1" source="qdcOP-TsMKveUZfFOnVb-5" target="qdcOP-TsMKveUZfFOnVb-17" edge="1">
          <mxGeometry relative="1" as="geometry" />
        </mxCell>
        <mxCell id="qdcOP-TsMKveUZfFOnVb-5" value="Подключиться к точке доступа" style="rounded=0;whiteSpace=wrap;html=1;" parent="WIyWlLk6GJQsqaUBKTNV-1" vertex="1">
          <mxGeometry x="160" y="660" width="120" height="50" as="geometry" />
        </mxCell>
        <mxCell id="qdcOP-TsMKveUZfFOnVb-13" value="" style="edgeStyle=orthogonalEdgeStyle;rounded=0;orthogonalLoop=1;jettySize=auto;html=1;" parent="WIyWlLk6GJQsqaUBKTNV-1" source="qdcOP-TsMKveUZfFOnVb-8" target="qdcOP-TsMKveUZfFOnVb-12" edge="1">
          <mxGeometry relative="1" as="geometry" />
        </mxCell>
        <mxCell id="qdcOP-TsMKveUZfFOnVb-8" value="Раздать точку доступа" style="rounded=0;whiteSpace=wrap;html=1;" parent="WIyWlLk6GJQsqaUBKTNV-1" vertex="1">
          <mxGeometry x="310" y="480" width="120" height="50" as="geometry" />
        </mxCell>
        <mxCell id="qdcOP-TsMKveUZfFOnVb-16" style="edgeStyle=orthogonalEdgeStyle;rounded=0;orthogonalLoop=1;jettySize=auto;html=1;entryX=1;entryY=0.5;entryDx=0;entryDy=0;" parent="WIyWlLk6GJQsqaUBKTNV-1" source="qdcOP-TsMKveUZfFOnVb-12" target="qdcOP-TsMKveUZfFOnVb-5" edge="1">
          <mxGeometry relative="1" as="geometry">
            <Array as="points">
              <mxPoint x="370" y="685" />
            </Array>
          </mxGeometry>
        </mxCell>
        <mxCell id="qdcOP-TsMKveUZfFOnVb-12" value="Ввод:&lt;br&gt;Название точки,&lt;br&gt;Пароль" style="shape=parallelogram;perimeter=parallelogramPerimeter;whiteSpace=wrap;html=1;fixedSize=1;" parent="WIyWlLk6GJQsqaUBKTNV-1" vertex="1">
          <mxGeometry x="310" y="570" width="120" height="60" as="geometry" />
        </mxCell>
        <mxCell id="qdcOP-TsMKveUZfFOnVb-22" value="" style="edgeStyle=orthogonalEdgeStyle;rounded=0;orthogonalLoop=1;jettySize=auto;html=1;" parent="WIyWlLk6GJQsqaUBKTNV-1" source="qdcOP-TsMKveUZfFOnVb-17" target="qdcOP-TsMKveUZfFOnVb-21" edge="1">
          <mxGeometry relative="1" as="geometry" />
        </mxCell>
        <mxCell id="qdcOP-TsMKveUZfFOnVb-17" value="Запуск сервера" style="rounded=0;whiteSpace=wrap;html=1;" parent="WIyWlLk6GJQsqaUBKTNV-1" vertex="1">
          <mxGeometry x="160" y="750" width="120" height="50" as="geometry" />
        </mxCell>
        <mxCell id="qdcOP-TsMKveUZfFOnVb-24" value="" style="edgeStyle=orthogonalEdgeStyle;rounded=0;orthogonalLoop=1;jettySize=auto;html=1;" parent="WIyWlLk6GJQsqaUBKTNV-1" source="qdcOP-TsMKveUZfFOnVb-21" target="qdcOP-TsMKveUZfFOnVb-23" edge="1">
          <mxGeometry relative="1" as="geometry" />
        </mxCell>
        <mxCell id="qdcOP-TsMKveUZfFOnVb-21" value="Вывод IP сервера&amp;nbsp;&lt;div&gt;на дисплей&lt;/div&gt;" style="rounded=0;whiteSpace=wrap;html=1;" parent="WIyWlLk6GJQsqaUBKTNV-1" vertex="1">
          <mxGeometry x="160" y="830" width="120" height="50" as="geometry" />
        </mxCell>
        <mxCell id="qdcOP-TsMKveUZfFOnVb-23" value="1" style="ellipse;whiteSpace=wrap;html=1;" parent="WIyWlLk6GJQsqaUBKTNV-1" vertex="1">
          <mxGeometry x="205" y="910" width="30" height="30" as="geometry" />
        </mxCell>
        <mxCell id="qdcOP-TsMKveUZfFOnVb-27" value="" style="edgeStyle=orthogonalEdgeStyle;rounded=0;orthogonalLoop=1;jettySize=auto;html=1;" parent="WIyWlLk6GJQsqaUBKTNV-1" source="qdcOP-TsMKveUZfFOnVb-25" target="qdcOP-TsMKveUZfFOnVb-26" edge="1">
          <mxGeometry relative="1" as="geometry" />
        </mxCell>
        <mxCell id="qdcOP-TsMKveUZfFOnVb-25" value="1" style="ellipse;whiteSpace=wrap;html=1;" parent="WIyWlLk6GJQsqaUBKTNV-1" vertex="1">
          <mxGeometry x="635" y="80" width="30" height="30" as="geometry" />
        </mxCell>
        <mxCell id="qdcOP-TsMKveUZfFOnVb-30" value="" style="edgeStyle=orthogonalEdgeStyle;rounded=0;orthogonalLoop=1;jettySize=auto;html=1;" parent="WIyWlLk6GJQsqaUBKTNV-1" source="qdcOP-TsMKveUZfFOnVb-26" edge="1">
          <mxGeometry relative="1" as="geometry">
            <mxPoint x="650" y="210" as="targetPoint" />
          </mxGeometry>
        </mxCell>
        <mxCell id="qdcOP-TsMKveUZfFOnVb-26" value="Начало цикла" style="strokeWidth=2;html=1;shape=mxgraph.flowchart.loop_limit;whiteSpace=wrap;" parent="WIyWlLk6GJQsqaUBKTNV-1" vertex="1">
          <mxGeometry x="592.5" y="140" width="115" height="40" as="geometry" />
        </mxCell>
        <mxCell id="qdcOP-TsMKveUZfFOnVb-32" value="" style="edgeStyle=orthogonalEdgeStyle;rounded=0;orthogonalLoop=1;jettySize=auto;html=1;" parent="WIyWlLk6GJQsqaUBKTNV-1" target="qdcOP-TsMKveUZfFOnVb-31" edge="1">
          <mxGeometry relative="1" as="geometry">
            <mxPoint x="650" y="260" as="sourcePoint" />
          </mxGeometry>
        </mxCell>
        <mxCell id="qdcOP-TsMKveUZfFOnVb-35" value="" style="edgeStyle=orthogonalEdgeStyle;rounded=0;orthogonalLoop=1;jettySize=auto;html=1;" parent="WIyWlLk6GJQsqaUBKTNV-1" source="qdcOP-TsMKveUZfFOnVb-31" target="qdcOP-TsMKveUZfFOnVb-34" edge="1">
          <mxGeometry relative="1" as="geometry" />
        </mxCell>
        <mxCell id="qdcOP-TsMKveUZfFOnVb-31" value="Конец цикла" style="strokeWidth=2;html=1;shape=mxgraph.flowchart.loop_limit;whiteSpace=wrap;rotation=-180;" parent="WIyWlLk6GJQsqaUBKTNV-1" vertex="1">
          <mxGeometry x="592.5" y="290" width="115" height="40" as="geometry" />
        </mxCell>
        <mxCell id="qdcOP-TsMKveUZfFOnVb-33" value="Работа асинхронного сервера" style="shape=process;whiteSpace=wrap;html=1;backgroundOutline=1;" parent="WIyWlLk6GJQsqaUBKTNV-1" vertex="1">
          <mxGeometry x="590" y="210" width="120" height="50" as="geometry" />
        </mxCell>
        <mxCell id="qdcOP-TsMKveUZfFOnVb-34" value="Конец" style="rounded=1;whiteSpace=wrap;html=1;fontSize=12;glass=0;strokeWidth=1;shadow=0;arcSize=50;" parent="WIyWlLk6GJQsqaUBKTNV-1" vertex="1">
          <mxGeometry x="590" y="370" width="120" height="40" as="geometry" />
        </mxCell>
        <mxCell id="qdcOP-TsMKveUZfFOnVb-40" value="" style="edgeStyle=orthogonalEdgeStyle;rounded=0;orthogonalLoop=1;jettySize=auto;html=1;" parent="WIyWlLk6GJQsqaUBKTNV-1" source="qdcOP-TsMKveUZfFOnVb-37" target="qdcOP-TsMKveUZfFOnVb-39" edge="1">
          <mxGeometry relative="1" as="geometry" />
        </mxCell>
        <mxCell id="qdcOP-TsMKveUZfFOnVb-37" value="Начало" style="rounded=1;whiteSpace=wrap;html=1;fontSize=12;glass=0;strokeWidth=1;shadow=0;arcSize=50;" parent="WIyWlLk6GJQsqaUBKTNV-1" vertex="1">
          <mxGeometry x="990" y="80" width="120" height="40" as="geometry" />
        </mxCell>
        <mxCell id="qdcOP-TsMKveUZfFOnVb-38" value="&lt;span style=&quot;color: rgb(0, 0, 0); font-family: Helvetica; font-size: 12px; font-style: normal; font-variant-ligatures: normal; font-variant-caps: normal; font-weight: 400; letter-spacing: normal; orphans: 2; text-align: center; text-indent: 0px; text-transform: none; widows: 2; word-spacing: 0px; -webkit-text-stroke-width: 0px; white-space: normal; background-color: rgb(251, 251, 251); text-decoration-thickness: initial; text-decoration-style: initial; text-decoration-color: initial; display: inline !important; float: none;&quot;&gt;Работа асинхронного сервера&lt;/span&gt;" style="text;whiteSpace=wrap;html=1;" parent="WIyWlLk6GJQsqaUBKTNV-1" vertex="1">
          <mxGeometry x="960" y="40" width="170" height="40" as="geometry" />
        </mxCell>
        <mxCell id="qdcOP-TsMKveUZfFOnVb-43" value="" style="edgeStyle=orthogonalEdgeStyle;rounded=0;orthogonalLoop=1;jettySize=auto;html=1;" parent="WIyWlLk6GJQsqaUBKTNV-1" source="qdcOP-TsMKveUZfFOnVb-39" target="qdcOP-TsMKveUZfFOnVb-42" edge="1">
          <mxGeometry relative="1" as="geometry" />
        </mxCell>
        <mxCell id="qdcOP-TsMKveUZfFOnVb-44" value="Да" style="edgeLabel;html=1;align=center;verticalAlign=middle;resizable=0;points=[];" parent="qdcOP-TsMKveUZfFOnVb-43" vertex="1" connectable="0">
          <mxGeometry x="-0.1273" y="2" relative="1" as="geometry">
            <mxPoint x="18" y="-4" as="offset" />
          </mxGeometry>
        </mxCell>
        <mxCell id="qdcOP-TsMKveUZfFOnVb-90" style="edgeStyle=orthogonalEdgeStyle;rounded=0;orthogonalLoop=1;jettySize=auto;html=1;entryX=0;entryY=0.5;entryDx=0;entryDy=0;" parent="WIyWlLk6GJQsqaUBKTNV-1" source="qdcOP-TsMKveUZfFOnVb-39" target="qdcOP-TsMKveUZfFOnVb-87" edge="1">
          <mxGeometry relative="1" as="geometry">
            <Array as="points">
              <mxPoint x="870" y="190" />
              <mxPoint x="870" y="1065" />
            </Array>
          </mxGeometry>
        </mxCell>
        <mxCell id="qdcOP-TsMKveUZfFOnVb-91" value="Нет" style="edgeLabel;html=1;align=center;verticalAlign=middle;resizable=0;points=[];" parent="qdcOP-TsMKveUZfFOnVb-90" vertex="1" connectable="0">
          <mxGeometry x="-0.941" y="2" relative="1" as="geometry">
            <mxPoint x="-2" y="-12" as="offset" />
          </mxGeometry>
        </mxCell>
        <mxCell id="qdcOP-TsMKveUZfFOnVb-39" value="Получен пакет?" style="rhombus;whiteSpace=wrap;html=1;shadow=0;fontFamily=Helvetica;fontSize=12;align=center;strokeWidth=1;spacing=6;spacingTop=-4;" parent="WIyWlLk6GJQsqaUBKTNV-1" vertex="1">
          <mxGeometry x="976.5" y="150" width="147" height="80" as="geometry" />
        </mxCell>
        <mxCell id="qdcOP-TsMKveUZfFOnVb-46" value="" style="edgeStyle=orthogonalEdgeStyle;rounded=0;orthogonalLoop=1;jettySize=auto;html=1;" parent="WIyWlLk6GJQsqaUBKTNV-1" source="qdcOP-TsMKveUZfFOnVb-42" target="qdcOP-TsMKveUZfFOnVb-45" edge="1">
          <mxGeometry relative="1" as="geometry" />
        </mxCell>
        <mxCell id="qdcOP-TsMKveUZfFOnVb-42" value="Расшифровка пакета" style="rounded=0;whiteSpace=wrap;html=1;" parent="WIyWlLk6GJQsqaUBKTNV-1" vertex="1">
          <mxGeometry x="990" y="280" width="120" height="50" as="geometry" />
        </mxCell>
        <mxCell id="qdcOP-TsMKveUZfFOnVb-48" value="" style="edgeStyle=orthogonalEdgeStyle;rounded=0;orthogonalLoop=1;jettySize=auto;html=1;" parent="WIyWlLk6GJQsqaUBKTNV-1" source="qdcOP-TsMKveUZfFOnVb-45" target="qdcOP-TsMKveUZfFOnVb-47" edge="1">
          <mxGeometry relative="1" as="geometry" />
        </mxCell>
        <mxCell id="qdcOP-TsMKveUZfFOnVb-51" value="Да" style="edgeLabel;html=1;align=center;verticalAlign=middle;resizable=0;points=[];" parent="qdcOP-TsMKveUZfFOnVb-48" vertex="1" connectable="0">
          <mxGeometry x="-0.1905" relative="1" as="geometry">
            <mxPoint x="20" as="offset" />
          </mxGeometry>
        </mxCell>
        <mxCell id="qdcOP-TsMKveUZfFOnVb-50" style="edgeStyle=orthogonalEdgeStyle;rounded=0;orthogonalLoop=1;jettySize=auto;html=1;entryX=0.5;entryY=0;entryDx=0;entryDy=0;" parent="WIyWlLk6GJQsqaUBKTNV-1" source="qdcOP-TsMKveUZfFOnVb-45" edge="1">
          <mxGeometry relative="1" as="geometry">
            <mxPoint x="1220" y="490" as="targetPoint" />
          </mxGeometry>
        </mxCell>
        <mxCell id="qdcOP-TsMKveUZfFOnVb-52" value="Нет" style="edgeLabel;html=1;align=center;verticalAlign=middle;resizable=0;points=[];" parent="qdcOP-TsMKveUZfFOnVb-50" vertex="1" connectable="0">
          <mxGeometry x="-0.2626" y="1" relative="1" as="geometry">
            <mxPoint y="-9" as="offset" />
          </mxGeometry>
        </mxCell>
        <mxCell id="qdcOP-TsMKveUZfFOnVb-45" value="Чтение памяти?" style="rhombus;whiteSpace=wrap;html=1;shadow=0;fontFamily=Helvetica;fontSize=12;align=center;strokeWidth=1;spacing=6;spacingTop=-4;" parent="WIyWlLk6GJQsqaUBKTNV-1" vertex="1">
          <mxGeometry x="976.5" y="370" width="147" height="80" as="geometry" />
        </mxCell>
        <mxCell id="qdcOP-TsMKveUZfFOnVb-55" value="" style="edgeStyle=orthogonalEdgeStyle;rounded=0;orthogonalLoop=1;jettySize=auto;html=1;" parent="WIyWlLk6GJQsqaUBKTNV-1" source="qdcOP-TsMKveUZfFOnVb-47" target="qdcOP-TsMKveUZfFOnVb-54" edge="1">
          <mxGeometry relative="1" as="geometry" />
        </mxCell>
        <mxCell id="qdcOP-TsMKveUZfFOnVb-47" value="Поиск данных в памяти" style="rounded=0;whiteSpace=wrap;html=1;" parent="WIyWlLk6GJQsqaUBKTNV-1" vertex="1">
          <mxGeometry x="990" y="490" width="120" height="50" as="geometry" />
        </mxCell>
        <mxCell id="qdcOP-TsMKveUZfFOnVb-68" style="edgeStyle=orthogonalEdgeStyle;rounded=0;orthogonalLoop=1;jettySize=auto;html=1;entryX=0.5;entryY=0;entryDx=0;entryDy=0;" parent="WIyWlLk6GJQsqaUBKTNV-1" source="qdcOP-TsMKveUZfFOnVb-53" target="qdcOP-TsMKveUZfFOnVb-61" edge="1">
          <mxGeometry relative="1" as="geometry" />
        </mxCell>
        <mxCell id="qdcOP-TsMKveUZfFOnVb-53" value="Чтение памяти?" style="rhombus;whiteSpace=wrap;html=1;shadow=0;fontFamily=Helvetica;fontSize=12;align=center;strokeWidth=1;spacing=6;spacingTop=-4;" parent="WIyWlLk6GJQsqaUBKTNV-1" vertex="1">
          <mxGeometry x="1150" y="430" width="147" height="80" as="geometry" />
        </mxCell>
        <mxCell id="qdcOP-TsMKveUZfFOnVb-57" value="" style="edgeStyle=orthogonalEdgeStyle;rounded=0;orthogonalLoop=1;jettySize=auto;html=1;" parent="WIyWlLk6GJQsqaUBKTNV-1" source="qdcOP-TsMKveUZfFOnVb-54" target="qdcOP-TsMKveUZfFOnVb-56" edge="1">
          <mxGeometry relative="1" as="geometry" />
        </mxCell>
        <mxCell id="qdcOP-TsMKveUZfFOnVb-54" value="Чтение данных из памяти" style="rounded=0;whiteSpace=wrap;html=1;" parent="WIyWlLk6GJQsqaUBKTNV-1" vertex="1">
          <mxGeometry x="990" y="570" width="120" height="50" as="geometry" />
        </mxCell>
        <mxCell id="qdcOP-TsMKveUZfFOnVb-59" value="" style="edgeStyle=orthogonalEdgeStyle;rounded=0;orthogonalLoop=1;jettySize=auto;html=1;" parent="WIyWlLk6GJQsqaUBKTNV-1" source="qdcOP-TsMKveUZfFOnVb-56" target="qdcOP-TsMKveUZfFOnVb-58" edge="1">
          <mxGeometry relative="1" as="geometry" />
        </mxCell>
        <mxCell id="qdcOP-TsMKveUZfFOnVb-56" value="Формировка пакета" style="rounded=0;whiteSpace=wrap;html=1;" parent="WIyWlLk6GJQsqaUBKTNV-1" vertex="1">
          <mxGeometry x="990" y="650" width="120" height="50" as="geometry" />
        </mxCell>
        <mxCell id="qdcOP-TsMKveUZfFOnVb-88" style="edgeStyle=orthogonalEdgeStyle;rounded=0;orthogonalLoop=1;jettySize=auto;html=1;entryX=0.5;entryY=0;entryDx=0;entryDy=0;" parent="WIyWlLk6GJQsqaUBKTNV-1" source="qdcOP-TsMKveUZfFOnVb-58" target="qdcOP-TsMKveUZfFOnVb-87" edge="1">
          <mxGeometry relative="1" as="geometry" />
        </mxCell>
        <mxCell id="qdcOP-TsMKveUZfFOnVb-58" value="Отправка данных на сервер" style="rounded=0;whiteSpace=wrap;html=1;" parent="WIyWlLk6GJQsqaUBKTNV-1" vertex="1">
          <mxGeometry x="990" y="730" width="120" height="50" as="geometry" />
        </mxCell>
        <mxCell id="qdcOP-TsMKveUZfFOnVb-60" value="" style="edgeStyle=orthogonalEdgeStyle;rounded=0;orthogonalLoop=1;jettySize=auto;html=1;" parent="WIyWlLk6GJQsqaUBKTNV-1" source="qdcOP-TsMKveUZfFOnVb-61" edge="1">
          <mxGeometry relative="1" as="geometry">
            <mxPoint x="1223.5172413793105" y="620" as="targetPoint" />
          </mxGeometry>
        </mxCell>
        <mxCell id="qdcOP-TsMKveUZfFOnVb-61" value="Поиск данных в памяти" style="rounded=0;whiteSpace=wrap;html=1;" parent="WIyWlLk6GJQsqaUBKTNV-1" vertex="1">
          <mxGeometry x="1163.5" y="540" width="120" height="50" as="geometry" />
        </mxCell>
        <mxCell id="qdcOP-TsMKveUZfFOnVb-69" value="" style="edgeStyle=orthogonalEdgeStyle;rounded=0;orthogonalLoop=1;jettySize=auto;html=1;" parent="WIyWlLk6GJQsqaUBKTNV-1" source="qdcOP-TsMKveUZfFOnVb-70" target="qdcOP-TsMKveUZfFOnVb-72" edge="1">
          <mxGeometry relative="1" as="geometry" />
        </mxCell>
        <mxCell id="qdcOP-TsMKveUZfFOnVb-70" value="Запись данных в память" style="rounded=0;whiteSpace=wrap;html=1;" parent="WIyWlLk6GJQsqaUBKTNV-1" vertex="1">
          <mxGeometry x="1163.5" y="810" width="120" height="50" as="geometry" />
        </mxCell>
        <mxCell id="qdcOP-TsMKveUZfFOnVb-71" value="" style="edgeStyle=orthogonalEdgeStyle;rounded=0;orthogonalLoop=1;jettySize=auto;html=1;" parent="WIyWlLk6GJQsqaUBKTNV-1" source="qdcOP-TsMKveUZfFOnVb-72" target="qdcOP-TsMKveUZfFOnVb-73" edge="1">
          <mxGeometry relative="1" as="geometry" />
        </mxCell>
        <mxCell id="qdcOP-TsMKveUZfFOnVb-72" value="Формировка пакета" style="rounded=0;whiteSpace=wrap;html=1;" parent="WIyWlLk6GJQsqaUBKTNV-1" vertex="1">
          <mxGeometry x="1163.5" y="890" width="120" height="50" as="geometry" />
        </mxCell>
        <mxCell id="qdcOP-TsMKveUZfFOnVb-92" style="edgeStyle=orthogonalEdgeStyle;rounded=0;orthogonalLoop=1;jettySize=auto;html=1;entryX=1;entryY=0.5;entryDx=0;entryDy=0;" parent="WIyWlLk6GJQsqaUBKTNV-1" source="qdcOP-TsMKveUZfFOnVb-73" target="qdcOP-TsMKveUZfFOnVb-87" edge="1">
          <mxGeometry relative="1" as="geometry">
            <Array as="points">
              <mxPoint x="1224" y="1065" />
            </Array>
          </mxGeometry>
        </mxCell>
        <mxCell id="qdcOP-TsMKveUZfFOnVb-73" value="Отправка подтверждения на сервер" style="rounded=0;whiteSpace=wrap;html=1;" parent="WIyWlLk6GJQsqaUBKTNV-1" vertex="1">
          <mxGeometry x="1163.5" y="970" width="120" height="50" as="geometry" />
        </mxCell>
        <mxCell id="qdcOP-TsMKveUZfFOnVb-75" style="edgeStyle=orthogonalEdgeStyle;rounded=0;orthogonalLoop=1;jettySize=auto;html=1;entryX=1;entryY=0.5;entryDx=0;entryDy=0;" parent="WIyWlLk6GJQsqaUBKTNV-1" source="qdcOP-TsMKveUZfFOnVb-74" target="qdcOP-TsMKveUZfFOnVb-70" edge="1">
          <mxGeometry relative="1" as="geometry">
            <mxPoint x="1390" y="760" as="targetPoint" />
            <Array as="points">
              <mxPoint x="1360" y="660" />
              <mxPoint x="1360" y="835" />
            </Array>
          </mxGeometry>
        </mxCell>
        <mxCell id="qdcOP-TsMKveUZfFOnVb-76" value="Нет" style="edgeLabel;html=1;align=center;verticalAlign=middle;resizable=0;points=[];" parent="qdcOP-TsMKveUZfFOnVb-75" vertex="1" connectable="0">
          <mxGeometry x="-0.7017" y="-1" relative="1" as="geometry">
            <mxPoint x="10" y="-11" as="offset" />
          </mxGeometry>
        </mxCell>
        <mxCell id="qdcOP-TsMKveUZfFOnVb-79" value="" style="edgeStyle=orthogonalEdgeStyle;rounded=0;orthogonalLoop=1;jettySize=auto;html=1;" parent="WIyWlLk6GJQsqaUBKTNV-1" source="qdcOP-TsMKveUZfFOnVb-74" target="qdcOP-TsMKveUZfFOnVb-78" edge="1">
          <mxGeometry relative="1" as="geometry" />
        </mxCell>
        <mxCell id="qdcOP-TsMKveUZfFOnVb-86" value="Да" style="edgeLabel;html=1;align=center;verticalAlign=middle;resizable=0;points=[];" parent="qdcOP-TsMKveUZfFOnVb-79" vertex="1" connectable="0">
          <mxGeometry x="0.26" y="-3" relative="1" as="geometry">
            <mxPoint x="21" y="3" as="offset" />
          </mxGeometry>
        </mxCell>
        <mxCell id="qdcOP-TsMKveUZfFOnVb-74" value="Есть данные?" style="rhombus;whiteSpace=wrap;html=1;shadow=0;fontFamily=Helvetica;fontSize=12;align=center;strokeWidth=1;spacing=6;spacingTop=-4;" parent="WIyWlLk6GJQsqaUBKTNV-1" vertex="1">
          <mxGeometry x="1150" y="620" width="147" height="80" as="geometry" />
        </mxCell>
        <mxCell id="qdcOP-TsMKveUZfFOnVb-85" style="edgeStyle=orthogonalEdgeStyle;rounded=0;orthogonalLoop=1;jettySize=auto;html=1;entryX=0.5;entryY=0;entryDx=0;entryDy=0;" parent="WIyWlLk6GJQsqaUBKTNV-1" source="qdcOP-TsMKveUZfFOnVb-78" target="qdcOP-TsMKveUZfFOnVb-70" edge="1">
          <mxGeometry relative="1" as="geometry" />
        </mxCell>
        <mxCell id="qdcOP-TsMKveUZfFOnVb-78" value="Индексирование названия файла" style="rounded=0;whiteSpace=wrap;html=1;" parent="WIyWlLk6GJQsqaUBKTNV-1" vertex="1">
          <mxGeometry x="1163.5" y="730" width="120" height="50" as="geometry" />
        </mxCell>
        <mxCell id="qdcOP-TsMKveUZfFOnVb-94" value="" style="edgeStyle=orthogonalEdgeStyle;rounded=0;orthogonalLoop=1;jettySize=auto;html=1;" parent="WIyWlLk6GJQsqaUBKTNV-1" source="qdcOP-TsMKveUZfFOnVb-87" target="qdcOP-TsMKveUZfFOnVb-93" edge="1">
          <mxGeometry relative="1" as="geometry" />
        </mxCell>
        <mxCell id="qdcOP-TsMKveUZfFOnVb-87" value="Отображение статуса на дисплей" style="rounded=0;whiteSpace=wrap;html=1;" parent="WIyWlLk6GJQsqaUBKTNV-1" vertex="1">
          <mxGeometry x="990" y="1040" width="120" height="50" as="geometry" />
        </mxCell>
        <mxCell id="qdcOP-TsMKveUZfFOnVb-93" value="Конец" style="rounded=1;whiteSpace=wrap;html=1;fontSize=12;glass=0;strokeWidth=1;shadow=0;arcSize=50;" parent="WIyWlLk6GJQsqaUBKTNV-1" vertex="1">
          <mxGeometry x="990" y="1120" width="120" height="40" as="geometry" />
        </mxCell>
      </root>
    </mxGraphModel>
  </diagram>
</mxfile>
